# xmcd
#
# Track frame offsets: 
#        150
#        20372
#        49337
#        72634
#        94079
#        120679
#        148076
#        171575
#        218963
#        262781
#        304521
#
# Disc length: 4603 seconds
#
# Revision: 0
# Processed by: cddbd v1.5.2PL0 Copyright (c) Steve Scherf et al.
# Submitted via: ExactAudioCopy v0.99pb5
#
DISCID=a311f90b
DTITLE=VaN Morrison - The Best of 2000
DYEAR=2000
DGENRE=Rhythmic Soul
TTITLE0=New Biography-05-05-Newcastle-Upon-Tyne-England
TTITLE1=Golden Autumn Day-05-05-Newcastle-Upon-Tyne-England
TTITLE2=Naked In The Jungle-03-30-Brighton-England
TTITLE3=Satisfied-03-30-Brighton-England
TTITLE4=Georgia On My Mind-03-30-Brighton-England
TTITLE5=When The Leaves Come Falling Down-03-18-Glasgow-Scotland
TTITLE6=Vanlose Stairway-02-09-Oxford-England
TTITLE7=It's All In The Game-02-09-Oxford-England
TTITLE8=Philosopher's Stone-02-09-Oxford-England
TTITLE9=Help Me-02-09-Oxford-England
TTITLE10=It's A Man's, Man's, Man's World-02-09-Oxford-England
EXTD=
EXTT0=
EXTT1=
EXTT2=
EXTT3=
EXTT4=
EXTT5=
EXTT6=
EXTT7=
EXTT8=
EXTT9=
EXTT10=
PLAYORDER=
